<svg xmlns="http://www.w3.org/2000/svg" version="1.1" viewBox="-5.0 -10.0 110.0 135.0">
 <g>
  <path d="m67.898 24.301h-31.598c-0.89844 0-1.5 0.69922-1.5 1.5s0.69922 1.5 1.5 1.5h31.5c0.89844 0 1.5-0.69922 1.5-1.5s-0.60156-1.5-1.4023-1.5z"/>
  <path d="m67.898 37.102h-31.598c-0.89844 0-1.5 0.69922-1.5 1.5 0 0.80078 0.69922 1.5 1.5 1.5h31.5c0.89844 0 1.5-0.69922 1.5-1.5 0-0.80078-0.60156-1.5-1.4023-1.5z"/>
  <path d="m69.398 51.301c0-0.89844-0.69922-1.5-1.5-1.5h-18.699c-0.89844 0-1.5 0.69922-1.5 1.5 0 0.89844 0.69922 1.5 1.5 1.5h18.699c0.80078 0.097657 1.5-0.60156 1.5-1.5z"/>
  <path d="m53.602 62.5c-0.89844 0-1.5 0.69922-1.5 1.5 0 0.89844 0.69922 1.5 1.5 1.5h10.801c0.89844 0 1.5-0.69922 1.5-1.5 0-0.89844-0.69922-1.5-1.5-1.5z"/>
  <path d="m25.602 38.602c0.89844 0 1.5-0.69922 1.5-1.5v-17.5c0-2.6016 2.1016-4.6992 4.6992-4.6992h39.699c3 0 5.5 2.5 5.5 5.5v21.602c0 0.89844 0.69922 1.5 1.5 1.5s1.5-0.69922 1.5-1.5v-21.605c0-4.6992-3.8984-8.6016-8.6016-8.6016l-39.598 0.003906c-4.3008 0-7.8008 3.5-7.8008 7.8008v17.5c0.10156 0.89844 0.69922 1.5 1.6016 1.5z"/>
  <path d="m58.102 75h-8.8008c-0.89844 0-1.5 0.69922-1.5 1.5 0 0.89844 0.69922 1.5 1.5 1.5h8.8008c0.89844 0 1.5-0.69922 1.5-1.5 0.097657-0.80078-0.60156-1.5-1.5-1.5z"/>
  <path d="m97.398 48.102c-0.30078-1.1992-1-2.1992-2-2.8984l-5.3984-3.5c-2.1016-1.3984-4.8984-0.80078-6.3008 1.3008l-19.098 29.695c-1.1016 1.8008-1.6992 3.8008-1.6016 5.8984l0.30078 8.1016c0 0.5 0.30078 1 0.69922 1.1992 0.30078 0.19922 0.5 0.19922 0.80078 0.19922 0.19922 0 0.39844 0 0.60156-0.10156l7.5-3c2-0.80078 3.6016-2.1016 4.6992-3.8984l19.199-29.602c0.59766-0.99609 0.89844-2.1953 0.59766-3.3945zm-22.398 31.297c-0.80078 1.1992-1.8984 2.1992-3.3008 2.6992l-5.5 2.1992-0.19922-5.7969c-0.10156-1.5 0.30078-2.8984 1.1016-4.1016l15.797-24.398 7.8008 5.1016zm19.199-29.598-1.8008 2.6992-7.8008-5.1016 1.8008-2.6992c0.30078-0.39844 0.69922-0.69922 1.1992-0.69922 0.30078 0 0.5 0.10156 0.80078 0.19922l5.3984 3.5c0.30078 0.19922 0.60156 0.5 0.60156 0.89844 0.10156 0.50391 0 0.90234-0.19922 1.2031z"/>
  <path d="m48.699 63.102c0-2-1.5-3.6992-3.3984-4l-2.5-0.39844-0.60156-1.3984 1.5-2c1.1992-1.6016 1-3.8008-0.39844-5.1992l-2.8008-2.8008c-1.3984-1.3984-3.6992-1.6016-5.1992-0.39844l-2 1.5-1.3984-0.60156-0.39844-2.5c-0.30078-2-2-3.3984-4-3.3984h-4c-2 0-3.6992 1.5-4 3.3984l-0.39844 2.5-1.3984 0.60156-2-1.5c-1.6016-1.1992-3.8008-1-5.1992 0.39844l-2.8008 2.8008c-1.3984 1.3984-1.6016 3.6992-0.39844 5.1992l1.5 2-0.60156 1.3984-2.5 0.39844c-2 0.30078-3.3984 2-3.3984 4v4c0 2 1.5 3.6992 3.3984 4l2.5 0.39844 0.79297 1.3008-1.5 2c-1.1992 1.6016-1 3.8008 0.39844 5.1992l2.8008 2.8008c1.3984 1.3984 3.6992 1.6016 5.1992 0.39844l2-1.5 1.3984 0.60156 0.39844 2.5c0.30078 2 2 3.3984 4 3.3984h4c2 0 3.6992-1.5 4-3.3984l0.39844-2.5 1.3984-0.60156 2 1.5c1.6016 1.1992 3.8008 1 5.1992-0.39844l2.8008-2.8008c1.3984-1.3984 1.6016-3.6992 0.39844-5.1992l-1.5-2 0.60156-1.3008 2.5-0.39844c2-0.30078 3.3984-2 3.3984-4l0.007813-4zm-3.0977 4c0 0.5-0.30078 0.89844-0.80078 0.89844l-3.3984 0.5c-0.5 0.10156-1 0.39844-1.1992 0.89844l-1.1992 3c-0.19922 0.5-0.10156 1.1016 0.19922 1.5l2 2.6992c0.30078 0.39844 0.19922 0.89844-0.10156 1.1992l-2.8008 2.8008c-0.30078 0.30078-0.89844 0.39844-1.1992 0.10156l-2.6992-2c-0.39844-0.30078-1-0.39844-1.5-0.19922l-3 1.1992c-0.5 0.19922-0.89844 0.69922-0.89844 1.1992l-0.5 3.3008c-0.10156 0.5-0.5 0.80078-0.89844 0.80078h-4c-0.5 0-0.89844-0.30078-0.89844-0.80078l-0.5-3.3008c-0.10156-0.5-0.39844-1-0.89844-1.1992l-3-1.1992c-0.19922-0.10156-0.39844-0.10156-0.60156-0.10156-0.30078 0-0.69922 0.10156-0.89844 0.30078l-2.6992 2c-0.39844 0.30078-0.89844 0.19922-1.1992-0.10156l-2.9102-2.7969c-0.30078-0.30078-0.39844-0.89844-0.10156-1.1992l2-2.6992c0.30078-0.39844 0.39844-1 0.19922-1.5l-1.1992-3c-0.19922-0.5-0.69922-0.89844-1.1992-0.89844l-3.3008-0.50391c-0.5-0.10156-0.80078-0.5-0.80078-0.89844v-4c0-0.5 0.30078-0.89844 0.80078-0.89844l3.3008-0.5c0.5-0.10156 1-0.39844 1.1992-0.89844l1.1992-3c0.19922-0.5 0.10156-1.1016-0.19922-1.5l-2-2.6992c-0.30078-0.39844-0.19922-0.89844 0.10156-1.1992l2.8008-2.8008c0.30078-0.30078 0.89844-0.39844 1.1992-0.10156l2.6992 2c0.39844 0.30078 1 0.39844 1.5 0.19922l3-1.1992c0.5-0.19922 0.89844-0.69922 0.89844-1.1992l0.5-3.3008c0.10156-0.5 0.5-0.80078 0.89844-0.80078h4c0.5 0 0.89844 0.30078 0.89844 0.80078l0.5 3.3008c0.10156 0.5 0.39844 1 0.89844 1.1992l3 1.1992c0.5 0.19922 1.1016 0.10156 1.5-0.19922l2.6992-2c0.39844-0.30078 0.89844-0.19922 1.1992 0.10156l2.8008 2.8008c0.30078 0.30078 0.39844 0.80078 0.10156 1.1992l-2 2.6992c-0.30078 0.39844-0.30078 1.1992-0.10156 1.6992l1.1992 2.8008c0.19922 0.5 0.69922 0.89844 1.1992 0.89844l3.3008 0.5c0.5 0.10156 0.80078 0.5 0.80078 0.89844l0.007812 4z"/>
  <path d="m25.602 54.199c-6 0-10.898 4.8984-10.898 10.898s4.8984 10.898 10.898 10.898 10.898-4.8984 10.898-10.898c0-5.9961-4.8984-10.898-10.898-10.898zm0 18.699c-4.3008 0-7.8008-3.5-7.8008-7.8008 0-4.3008 3.5-7.8008 7.8008-7.8008 4.3008 0 7.8008 3.5 7.8008 7.8008-0.003906 4.3008-3.5039 7.8008-7.8008 7.8008z"/>
 </g>
<text x="0.0" y="117.5" font-size="5.0" font-weight="bold" font-family="Arbeit Regular, Helvetica, Arial-Unicode, Arial, Sans-serif" fill="#000000">Created by Adrien Coquet</text><text x="0.0" y="122.5" font-size="5.0" font-weight="bold" font-family="Arbeit Regular, Helvetica, Arial-Unicode, Arial, Sans-serif" fill="#000000">from Noun Project</text></svg>